<svg enable-background="new 0 0 207.31 60.2" height="60.2" viewBox="0 0 207.31 60.2" width="207.31" xmlns="http://www.w3.org/2000/svg"><g fill="#fff"><path d="m89.99 26.08c-.79-.38-1.11-1.1-.75-1.78l13.46-23.17c.56-.98 1.81-1.13 2.42-1.13s1.85.17 2.41 1.15l13.17 23.35c.37.68.07 1.41-.75 1.76-.79.32-1.67-.01-2.02-.63l-1.03-1.77-23.73-.09-1.15 1.68c-.36.63-1.24.94-2.03.63m15.11-22.96-10.5 18.16 20.9.07z"/><path d="m105.09 7.14c-4.44-.01-8.09 3.59-8.1 8.05-.02 4.48 3.6 8.1 8.04 8.1 4.45.02 8.1-3.57 8.11-8.04.02-4.47-3.6-8.1-8.05-8.11m-.05 13.29c-2.88 0-5.22-2.35-5.21-5.23.02-2.87 2.37-5.2 5.24-5.19 2.88.01 5.21 2.36 5.2 5.23 0 2.88-2.35 5.2-5.23 5.19"/><path d="m102.45 15.21c.01-1.44 1.17-2.62 2.63-2.61 1.45.01 2.62 1.19 2.61 2.63 0 1.45-1.19 2.62-2.63 2.62-1.46-.01-2.62-1.2-2.61-2.64"/><path d="m0 53.29v-1.73-1.73-1.72l1.48-.87 1.5-.86 1.48-.86 1.5-.86 1.5-.86 1.49-.86 1.5.86 1.48.86 1.51.86 1.5.86v-1.72-1.73l-1.5-.86-1.51-.86-1.48-.87-1.5-.86-1.49.86-1.5.87-1.5.86-1.48.86-1.5-.86v-1.73l1.5-.86 1.48-.86 1.5-.86 1.5-.86 1.49-.87 1.5.87 1.48.86 1.51.86 1.5.86 1.48.86 1.5.87v1.72 1.73 1.72 1.73 1.72 1.73 1.73 1.73l-1.5.86-1.48.86-1.5.86-1.51.86-1.48.87-1.5.86-1.49-.86-1.5-.87-1.5-.86-1.48-.86-1.5-.86-1.48-.86zm2.99-1.72v1.73l1.48.86 1.5.87 1.5.86 1.49.86 1.5-.86 1.48-.86 1.51-.87 1.5-.86v-1.73-1.73l-1.5-.86-1.51-.86-1.48-.87-1.5-.86-1.49.86-1.5.87-1.5.86-1.48.86z"/><path d="m21.39 53.29v-1.73-1.72-1.73-1.72-1.73-1.72-1.73l1.48-.86 1.5-.87 1.49-.86 1.5-.86 1.5-.87 1.48-.86 1.51.86 1.48.87 1.5.86 1.5.86 1.49.87 1.5-.87 1.48-.86 1.51-.86 1.5-.87 1.48-.86 1.5.86 1.49.87 1.5.86 1.5.86 1.48.87 1.51.86v1.73 1.72 1.73 1.72 1.73 1.72 1.73 1.73 1.72l-1.51.87-1.48-.87v-1.72-1.73-1.73-1.72-1.73-1.72-1.73-1.72l-1.5-.87-1.5-.86-1.49-.86-1.5-.87-1.48.87-1.5.86-1.51.86-1.48.87v1.72 1.73 1.72 1.73 1.72 1.73 1.73 1.72l-1.5.87-1.49-.87v-1.72-1.73-1.73-1.72-1.73-1.72-1.73-1.72l-1.5-.87-1.5-.86-1.48-.86-1.51-.87-1.48.87-1.5.86-1.5.86-1.49.87v1.72 1.73 1.72 1.73 1.72 1.73 1.73 1.72l-1.5.87-1.48-.87v-1.72z"/><path d="m57.52 53.29v-1.73-1.73-1.72l1.49-.87 1.5-.86 1.48-.86 1.51-.86 1.5-.86 1.49-.86 1.5.86 1.48.86 1.51.86 1.5.86v-1.72-1.73l-1.5-.86-1.51-.86-1.48-.87-1.5-.86-1.49.87-1.5.87-1.51.86-1.48.86-1.5-.86v-1.73l1.5-.86 1.48-.86 1.51-.86 1.5-.87 1.49-.87 1.5.87 1.48.86 1.51.86 1.5.86 1.48.86 1.5.87v1.72 1.73 1.72 1.73 1.72 1.73 1.73 1.73l-1.5.86-1.48.86-1.5.86-1.51.86-1.48.87-1.5.86-1.49-.86-1.5-.87-1.51-.86-1.48-.86-1.5-.86-1.49-.86zm2.99-1.72v1.73l1.48.86 1.51.87 1.5.86 1.49.86 1.5-.86 1.48-.86 1.51-.87 1.5-.86v-1.73-1.73l-1.5-.86-1.51-.86-1.48-.87-1.5-.86-1.49.86-1.5.87-1.51.86-1.48.86z"/><path d="m96.6 55.02-1.5.86-1.48.86-1.51.86-1.5.87-1.48.86-1.51.87-1.48-.87-1.5-.86-1.5-.87-1.49-.86-1.5-.86-1.48-.86v-1.73-1.72l1.48-.87 1.5-.86 1.49-.86 1.5-.87 1.5-.86 1.48-.87 1.51-.85 1.48-.87 1.5-.86 1.51-.87-1.51-.86-1.5-.86-1.48-.86-1.51-.87-1.48.87-1.5.86-1.5.86-1.49.86-1.5.87-1.48-.87v-1.72l1.48-.86 1.5-.87 1.49-.86 1.5-.86 1.5-.86 1.48-.87 1.51.87 1.48.86 1.5.86 1.51.86 1.48.87 1.5.86v1.72 1.73l-1.5.87-1.48.85-1.51.87-1.5.86-1.48.87-1.51.86-1.48.86-1.5.87-1.5.86-1.49.86 1.49.86 1.5.87 1.5.86 1.48.86 1.51-.86 1.48-.86 1.5-.87 1.51-.86 1.48-.86 1.5.86z"/><path d="m99.76 53.29v-1.73-1.73-1.72l1.49-.87 1.5-.86 1.48-.86 1.5-.86 1.5-.86 1.49-.86 1.49.86 1.49.86 1.5.86 1.5.86v-1.72-1.73l-1.5-.86-1.5-.86-1.49-.87-1.49-.86-1.49.86-1.5.87-1.5.86-1.48.86-1.5-.86v-1.73l1.5-.86 1.48-.86 1.5-.86 1.5-.86 1.49-.87 1.49.87 1.49.86 1.5.86 1.5.86 1.49.86 1.5.87v1.72 1.73 1.72 1.73 1.72 1.73 1.73 1.73l-1.5.86-1.49.86-1.5.86-1.5.86-1.49.87-1.49.86-1.49-.86-1.5-.87-1.5-.86-1.48-.86-1.5-.86-1.49-.86zm2.99-1.72v1.73l1.48.86 1.5.87 1.5.86 1.49.86 1.49-.86 1.49-.86 1.5-.87 1.5-.86v-1.73-1.73l-1.5-.86-1.5-.86-1.49-.87-1.49-.86-1.49.86-1.5.87-1.5.86-1.48.86z"/><path d="m139.03 41.21v1.73l-1.5.85-1.48-.85-1.51-.87-1.5-.86-1.48-.86-1.5-.87-1.49.87-1.5.86-1.5.86-1.49.87v1.72 1.73 1.72 1.73 1.72 1.73 1.73 1.72l-1.5.87-1.48-.87v-1.72-1.73-1.73-1.72-1.73-1.72-1.73-1.72-1.73l1.48-.86 1.5-.87 1.49-.86 1.5-.86 1.5-.87 1.49-.86 1.5.86 1.48.87 1.5.86 1.51.86 1.48.87z"/><path d="m140.31 53.29v-1.73-1.73-1.72l1.48-.87 1.5-.86 1.48-.86 1.5-.86 1.5-.86 1.49-.86 1.5.86 1.48.86 1.51.86 1.5.86v-1.72-1.73l-1.5-.86-1.51-.86-1.48-.87-1.5-.86-1.49.86-1.5.87-1.5.86-1.48.86-1.5-.86v-1.73l1.5-.86 1.48-.86 1.5-.86 1.5-.86 1.49-.87 1.5.87 1.48.86 1.51.86 1.5.86 1.48.86 1.5.87v1.72 1.73 1.72 1.73 1.72 1.73 1.73 1.73l-1.5.86-1.48.86-1.5.86-1.51.86-1.48.87-1.5.86-1.49-.86-1.5-.87-1.5-.86-1.48-.86-1.5-.86-1.48-.86zm2.99-1.72v1.73l1.48.86 1.5.87 1.5.86 1.49.86 1.5-.86 1.48-.86 1.51-.87 1.5-.86v-1.73-1.73l-1.5-.86-1.51-.86-1.48-.87-1.5-.86-1.49.86-1.5.87-1.5.86-1.48.86z"/><path d="m179 41.21v1.73l-1.5.85-1.49-.85-1.5-.87-1.5-.86-1.48-.86-1.51-.87-1.48.87-1.5.86-1.51.86-1.48.87 1.48.85 1.51.87 1.5.87 1.48.86 1.51.86 1.48.86 1.5.87 1.5.86 1.49.87 1.5.85v1.73 1.73l-1.5.86-1.49.86-1.5.87-1.5.86-1.48.86-1.51.86-1.48-.86-1.5-.86-1.51-.86-1.48-.87-1.5-.86-1.48-.86v-1.73l1.48-.86 1.5.86 1.48.86 1.51.87 1.5.86 1.48.86 1.51-.86 1.48-.86 1.5-.87 1.5-.86-1.5-.86-1.5-.87-1.48-.85-1.51-.87-1.48-.86-1.5-.87-1.51-.86-1.48-.86-1.5-.86-1.48-.87v-1.72-1.73l1.48-.86 1.5-.87 1.48-.86 1.51-.86 1.5-.87 1.48-.86 1.51.86 1.48.87 1.5.86 1.5.86 1.49.87z"/><path d="m182.5 53.29v-1.73-1.72-1.73-1.72-1.73-1.72-1.73-1.73-1.72-1.73-1.72-1.73-1.72-1.73-1.73l1.49-.86 1.5.86v1.73 1.73 1.72 1.73 1.72 1.73 1.72l1.48-.86 1.5-.86 1.5-.87 1.49-.86 1.5.86 1.48.87 1.51.86 1.5.86 1.48.87 1.5.86v1.73 1.72 1.73 1.72 1.73 1.72 1.73 1.73 1.72l-1.5.87-1.48-.87v-1.72-1.73-1.73-1.72-1.73-1.72-1.73-1.72l-1.5-.87-1.51-.86-1.48-.86-1.5-.87-1.49.87-1.5.86-1.5.86-1.48.87v1.72 1.73 1.72 1.73 1.72 1.73 1.73 1.72l-1.5.87-1.49-.87v-1.72z"/><path d="m207.31 29.13v1.73l-1.5.86-1.48-.86v-1.73l1.48-.86zm-2.99 24.16v-1.73-1.73-1.73-1.72-1.73-1.73-1.72-1.73l1.48-.86 1.5.86v1.73 1.72 1.73 1.73 1.72 1.73 1.73 1.73 1.73 1.72l-1.5.86-1.48-.86v-1.72z"/><path d="m105.01 51.57v1.08l.93.54.94.54.94.54.93.54.94-.54.93-.54.94-.54.95-.54v-1.08-1.09l-.95-.54-.94-.54-.93-.54-.94-.54-.93.54-.94.54-.94.54-.93.54z"/><path d="m145.52 51.57v1.08l.93.54.93.54.95.54.93.54.94-.54.93-.54.94-.54.95-.54v-1.08-1.09l-.95-.54-.94-.54-.93-.54-.94-.54-.93.54-.95.54-.93.54-.93.54z"/><path d="m62.71 51.57v1.08l.93.54.94.54.94.54.93.54.94-.54.94-.54.94-.54.94-.54v-1.08-1.09l-.94-.54-.94-.54-.94-.54-.94-.54-.93.54-.94.54-.94.54-.93.54z"/><path d="m5.15 51.57v1.08l.93.54.94.54.94.54.93.54.95-.54.93-.54.94-.54.94-.54v-1.08-1.09l-.94-.54-.94-.54-.93-.54-.95-.54-.93.54-.94.54-.94.54-.93.54z"/></g></svg>