<svg enable-background="new 0 0 21.5 21.5" height="21.5" viewBox="0 0 21.5 21.5" width="21.5" xmlns="http://www.w3.org/2000/svg"><g fill="#fff"><path d="m-115.01 18.55-10.33-18.13c-.43-.77-1.39-.89-1.87-.89-.49 0-1.45.12-1.88.89l-10.4 18.07c-.29.53-.05 1.09.57 1.38.63.24 1.3 0 1.59-.49l.88-1.31h18.48l.8 1.38c.29.49.96.73 1.59.49.62-.3.86-.86.57-1.39zm-12.2-3.12c-2.25 0-4.07-1.82-4.07-4.06s1.82-4.06 4.07-4.06c2.23 0 4.06 1.82 4.06 4.06 0 2.25-1.83 4.06-4.06 4.06zm0-13.47 1.98 3.45c-.62-.21-1.29-.33-1.98-.33s-1.36.12-1.98.33zm-6.15 10.71c.28 1.37 1.02 2.58 2.04 3.45h-4.02zm10.25 3.45c1.02-.88 1.75-2.09 2.04-3.45l1.98 3.45z"/><path d="m-127.21 9.33c-1.13 0-2.05.91-2.05 2.04s.92 2.04 2.05 2.04 2.04-.92 2.04-2.04c-.01-1.12-.91-2.04-2.04-2.04z"/><path d="m-77.11 7.58-.21 2.8h-2.88v9.75h-3.63v-9.75h-1.94v-2.8h1.94v-1.89c0-.83.02-2.11.63-2.91.63-.84 1.51-1.41 3.01-1.41 2.45 0 3.48.35 3.48.35l-.49 2.87s-.8-.23-1.56-.23c-.75 0-1.43.27-1.43 1.02v2.19h3.08z"/><path d="m-26.08 7.57c.01.18.01.35.01.54 0 5.49-4.18 11.82-11.82 11.82-2.34 0-4.52-.7-6.36-1.87.33.04.65.06.99.06 1.95 0 3.75-.66 5.16-1.78-1.81-.04-3.35-1.24-3.87-2.88.25.05.51.08.77.08.38 0 .75-.05 1.09-.15-1.9-.38-3.32-2.06-3.32-4.08 0-.02 0-.03 0-.05.56.31 1.2.5 1.88.52-1.12-.74-1.85-2.02-1.85-3.46 0-.75.2-1.47.57-2.08 2.04 2.51 5.1 4.16 8.56 4.34-.07-.3-.11-.62-.11-.95 0-2.29 1.86-4.15 4.15-4.15 1.2 0 2.28.51 3.04 1.32.94-.19 1.83-.53 2.63-1.01-.31.97-.97 1.79-1.83 2.3.84-.1 1.64-.32 2.38-.66-.56.82-1.26 1.55-2.07 2.14z"/><path d="m15.34 0h-9.18c-3.4 0-6.16 2.76-6.16 6.16v9.18c0 3.4 2.76 6.16 6.16 6.16h9.18c3.4 0 6.16-2.76 6.16-6.16v-9.18c0-3.4-2.76-6.16-6.16-6.16m4.36 14.57c0 2.83-2.3 5.13-5.13 5.13h-7.64c-2.83 0-5.13-2.3-5.13-5.13v-7.64c0-2.83 2.3-5.13 5.13-5.13h7.64c2.83 0 5.13 2.3 5.13 5.13z"/><path d="m10.81 5.32c-3.03 0-5.49 2.46-5.49 5.48 0 3.03 2.46 5.49 5.49 5.49s5.49-2.46 5.49-5.49c-.01-3.02-2.46-5.48-5.49-5.48m0 8.99c-1.93 0-3.5-1.57-3.5-3.5s1.57-3.5 3.5-3.5 3.5 1.57 3.5 3.5-1.57 3.5-3.5 3.5"/><path d="m15.06 5.09c0-.77.63-1.4 1.4-1.4s1.4.63 1.4 1.4-.63 1.4-1.4 1.4c-.77.01-1.4-.62-1.4-1.4"/></g></svg>